<svg width="16" height="16" viewBox="0 0 16 16" fill="none" xmlns="http://www.w3.org/2000/svg">
<g clip-path="url(#clip0_1_2)">
<path d="M10.64 13.8C12.4625 13.8 13.94 12.3225 13.94 10.5C13.94 8.67747 12.4625 7.2 10.64 7.2C8.92954 7.2 7.52303 8.50133 7.35651 10.1679C6.6823 9.86299 5.9539 9.68075 5.20799 9.63279C5.62385 7.00726 7.89752 5 10.64 5C13.6776 5 16.14 7.46244 16.14 10.5C16.14 13.4268 13.8539 15.8196 10.97 15.9903V16H7.34535V15.52C7.34535 14.8964 7.0882 14.2901 6.61687 13.8367C6.1442 13.3821 5.49496 13.12 4.80999 13.12C4.12502 13.12 3.47577 13.3821 3.0031 13.8367C2.53179 14.2901 2.27462 14.8964 2.27462 15.52V16H-0.140015V15.5082C-0.140015 14.2227 0.393496 12.9999 1.32667 12.1059C2.23 11.2406 3.43628 10.7503 4.69204 10.7214C4.73131 10.7205 4.77063 10.72 4.80999 10.72C4.84046 10.72 4.8709 10.7203 4.90134 10.7208C6.16664 10.7434 7.3836 11.2344 8.2933 12.1059C8.79724 12.5887 9.18463 13.1674 9.43436 13.8H10.64Z" fill="black"/>
<path d="M5.82115 14.6042C6.0893 14.8374 6.23997 15.1537 6.23997 15.4836V16H3.37997V15.4836C3.37997 15.1537 3.53065 14.8374 3.7988 14.6042C4.06698 14.371 4.43072 14.24 4.80997 14.24C5.18923 14.24 5.55297 14.371 5.82115 14.6042Z" fill="black"/>
<path d="M11.9 9.95998C11.5023 9.95998 11.18 9.63766 11.18 9.24001V9.05999C11.18 8.76178 10.9382 8.52 10.64 8.52C10.3418 8.52 10.1 8.76175 10.1 9.05999V9.24001C10.1 9.63766 9.77764 9.95998 9.37999 9.95998H9.19998C8.90177 9.95998 8.65999 10.2018 8.65999 10.5C8.65999 10.7982 8.90177 11.04 9.19998 11.04H9.37999C9.77764 11.04 10.1 11.3623 10.1 11.76V11.94C10.1 12.2382 10.3418 12.48 10.64 12.48C10.9382 12.48 11.18 12.2382 11.18 11.94V11.76C11.18 11.3623 11.5023 11.04 11.9 11.04H12.08C12.3782 11.04 12.62 10.7982 12.62 10.5C12.62 10.2018 12.3782 9.95998 12.08 9.95998H11.9Z" fill="black"/>
<path d="M2.94001 5.88001C2.94001 6.36601 3.33401 6.76 3.82001 6.76H4.03999C4.4045 6.76 4.69999 7.05549 4.69999 7.42C4.69999 7.78451 4.4045 8.08 4.03999 8.08H3.82001C3.33401 8.08 2.94001 8.47399 2.94001 8.95997V9.18C2.94001 9.54451 2.64453 9.84 2.28002 9.84C1.91551 9.84 1.62002 9.54451 1.62002 9.18V8.96C1.62002 8.47399 1.22603 8.08 0.740016 8.08H0.519985C0.155478 8.08 -0.140015 7.78451 -0.140015 7.42C-0.140015 7.05549 0.155478 6.76 0.519985 6.76H0.740018C1.22603 6.76 1.62002 6.36601 1.62002 5.88V5.66C1.62002 5.29549 1.91551 5 2.28002 5C2.64453 5 2.94001 5.29549 2.94001 5.66V5.88001Z" fill="black"/>
</g>
<defs>
<clipPath id="clip0_1_2">
<rect width="16" height="16" fill="white"/>
</clipPath>
</defs>
</svg>
